<svg width="140" height="140" viewBox="0 0 140 140" fill="none" xmlns="http://www.w3.org/2000/svg">
<g clip-path="url(#clip0_2350_3232)">
<circle cx="69.9855" cy="69.9885" r="68.1917" fill="white" stroke="#1B75BB" stroke-width="3.20917"/>
<mask id="mask0_2350_3232" style="mask-type:luminance" maskUnits="userSpaceOnUse" x="-6" y="-6" width="152" height="152">
<path d="M-5.21875 -5.22739H145.223V145.214H-5.21875V-5.22739Z" fill="white"/>
</mask>
<g mask="url(#mask0_2350_3232)">
<path d="M30.2304 81.8235V90.0139C30.2304 91.2485 29.8802 92.268 29.1799 93.0721C28.4794 93.8763 27.5921 94.2783 26.518 94.2783C26.2033 94.2783 25.8354 94.21 25.4141 94.0737V90.5749C25.592 90.6521 25.7553 90.6905 25.9037 90.6905C26.3785 90.6905 26.6159 90.3078 26.6159 89.5422V81.8235H30.2304Z" fill="#1B75BB"/>
<path d="M36.7186 87.8773V91.0823H35.677V93.9756H32.0625V86.2481C32.0625 84.7526 32.4705 83.5907 33.2866 82.7627C34.1026 81.9348 35.2496 81.5208 36.7275 81.5208C38.1519 81.5208 39.2054 81.8962 39.8879 82.6468C40.5703 83.3978 40.9118 84.5567 40.9118 86.1235V93.9756H37.2972V86.3638C37.2972 85.889 37.2408 85.5597 37.1281 85.3757C37.0153 85.1917 36.8134 85.0996 36.5227 85.0996C35.9587 85.0996 35.677 85.5212 35.677 86.3638V87.8773H36.7186Z" fill="#1B75BB"/>
<path d="M42.8359 81.8235H46.4504V89.0436C46.4504 89.6074 46.5408 89.9828 46.722 90.1698C46.9029 90.3568 47.2605 90.4502 47.7947 90.4502H47.9817V93.9756H47.0201C45.7026 93.9756 44.6757 93.5915 43.9399 92.8228C43.2039 92.0542 42.8359 90.9874 42.8359 89.6223V81.8235Z" fill="#1B75BB"/>
<path d="M53.6249 87.8773V91.0823H52.5832V93.9756H48.9688V86.2481C48.9688 84.7526 49.3767 83.5907 50.1929 82.7627C51.0089 81.9348 52.1558 81.5208 53.6337 81.5208C55.0581 81.5208 56.1116 81.8962 56.7942 82.6468C57.4766 83.3978 57.8181 84.5567 57.8181 86.1235V93.9756H54.2035V86.3638C54.2035 85.889 54.147 85.5597 54.0344 85.3757C53.9215 85.1917 53.7196 85.0996 53.429 85.0996C52.865 85.0996 52.5832 85.5212 52.5832 86.3638V87.8773H53.6249Z" fill="#1B75BB"/>
<path d="M63.6067 85.3132V93.9756H59.9922V81.8235H64.7017C66.7671 81.8235 68.3843 82.2924 69.5537 83.2301C70.9424 84.3518 71.6369 85.8742 71.6369 87.7971C71.6369 89.637 71.0434 91.1387 69.8562 92.3019C68.6693 93.4653 67.1411 94.0469 65.2714 94.0469C65.0518 94.0469 64.6928 94.0348 64.1943 94.0111V90.4413H64.7729C66.8798 90.4413 67.9333 89.56 67.9333 87.7971C67.9333 86.1412 66.8975 85.3132 64.8263 85.3132H63.6067Z" fill="#1B75BB"/>
<path d="M82.1851 93.9756H78.5707V81.8235H82.1851V93.9756ZM77.9562 86.168V89.3729H76.9504V93.9756H73.3359V81.8235H76.9504V86.168H77.9562Z" fill="#1B75BB"/>
<path d="M89.0311 87.8773V91.0823H87.9895V93.9756H84.375V86.2481C84.375 84.7526 84.783 83.5907 85.5991 82.7627C86.415 81.9348 87.5621 81.5208 89.04 81.5208C90.4644 81.5208 91.5177 81.8962 92.2004 82.6468C92.883 83.3978 93.2242 84.5567 93.2242 86.1235V93.9756H89.6099V86.3638C89.6099 85.889 89.5533 85.5597 89.4406 85.3757C89.3278 85.1917 89.126 85.0996 88.8352 85.0996C88.2712 85.0996 87.9895 85.5212 87.9895 86.3638V87.8773H89.0311Z" fill="#1B75BB"/>
<path d="M99.0285 85.0906V93.9756H95.4141V81.8233H100.052C101.465 81.8233 102.56 82.1736 103.337 82.874C104.204 83.6574 104.637 84.6515 104.637 85.8563C104.637 87.0848 104.1 88.1208 103.026 88.9632L105.109 93.9756H101.316L99.5626 90.0583V86.9335H99.8475C100.607 86.9335 100.987 86.6072 100.987 85.9541C100.987 85.3785 100.548 85.0906 99.6696 85.0906H99.0285Z" fill="#1B75BB"/>
<path d="M110.719 87.8773V91.0823H109.677V93.9756H106.062V86.2481C106.062 84.7526 106.47 83.5907 107.287 82.7627C108.102 81.9348 109.25 81.5208 110.727 81.5208C112.152 81.5208 113.205 81.8962 113.888 82.6468C114.57 83.3978 114.912 84.5567 114.912 86.1235V93.9756H111.297V86.3638C111.297 85.889 111.241 85.5597 111.128 85.3757C111.015 85.1917 110.814 85.0996 110.523 85.0996C109.959 85.0996 109.677 85.5212 109.677 86.3638V87.8773H110.719Z" fill="#1B75BB"/>
<path d="M32.0312 100.248H36.447C39.0643 100.248 40.373 101.278 40.373 103.338C40.373 104.358 39.9248 105.207 39.0287 105.884C40.3285 106.448 40.9784 107.454 40.9784 108.902C40.9784 110.012 40.5957 110.896 39.8299 111.555C39.4561 111.869 39.0554 112.089 38.6282 112.213C38.2008 112.338 37.6251 112.4 36.901 112.4H36.2154V109.276H36.8297C37.1916 109.276 37.4469 109.23 37.5954 109.138C37.7438 109.046 37.8179 108.884 37.8179 108.652C37.8179 108.261 37.5152 108.065 36.9099 108.065H36.2154V104.824C36.8801 104.824 37.2126 104.596 37.2126 104.139C37.2126 103.717 36.9129 103.507 36.3134 103.507H35.6457V112.4H32.0312V100.248Z" fill="#1B75BB"/>
<path d="M48.1019 103.523C47.36 103.523 46.7278 103.797 46.2056 104.342C45.6833 104.889 45.4223 105.548 45.4223 106.319C45.4223 107.091 45.6848 107.749 46.2101 108.295C46.7353 108.842 47.3658 109.114 48.1019 109.114C48.8498 109.114 49.4833 108.843 50.0026 108.3C50.5219 107.757 50.7816 107.097 50.7816 106.319C50.7816 105.542 50.5219 104.881 50.0026 104.338C49.4833 103.795 48.8498 103.523 48.1019 103.523ZM48.2087 99.9447C49.9299 99.9447 51.4062 100.571 52.6378 101.823C53.8693 103.075 54.4851 104.574 54.4851 106.319C54.4851 108.094 53.8648 109.601 52.6245 110.842C51.3839 112.082 49.8765 112.702 48.1019 112.702C46.3392 112.702 44.8347 112.079 43.5883 110.833C42.3419 109.586 41.7188 108.082 41.7188 106.319C41.7188 104.538 42.3464 103.031 43.6017 101.796C44.8569 100.562 46.3926 99.9447 48.2087 99.9447Z" fill="#1B75BB"/>
<path d="M59.8098 103.515V112.4H56.1953V100.248H60.8337C62.246 100.248 63.3411 100.598 64.1187 101.299C64.9851 102.082 65.4185 103.076 65.4185 104.281C65.4185 105.51 64.8813 106.546 63.8071 107.388L65.8903 112.4H62.0977L60.344 108.483V105.358H60.6288C61.3885 105.358 61.7684 105.032 61.7684 104.379C61.7684 103.803 61.3291 103.515 60.4508 103.515H59.8098Z" fill="#1B75BB"/>
<path d="M73.5741 104.976V107.682H71.2149C70.8945 107.682 70.6675 107.73 70.5339 107.824C70.4003 107.919 70.3335 108.08 70.3335 108.305C70.3335 108.56 70.4017 108.728 70.5383 108.808C70.6749 108.888 70.9536 108.928 71.3752 108.928H73.8057V112.4H70.9657C69.6302 112.4 68.6095 112.081 67.9031 111.443C67.1967 110.805 66.8438 109.884 66.8438 108.679V103.916C66.8438 102.753 67.1776 101.851 67.8452 101.21C68.5129 100.569 69.4522 100.248 70.663 100.248H73.8057V103.738H71.4999C70.8766 103.738 70.565 103.94 70.565 104.343C70.565 104.581 70.6392 104.746 70.7877 104.837C70.9359 104.93 71.2 104.976 71.5799 104.976H73.5741Z" fill="#1B75BB"/>
<path d="M88.4972 100.247V108.999C88.4972 110.091 88.1679 110.981 87.5092 111.67C86.8502 112.358 85.9986 112.702 84.9539 112.702C83.6956 112.702 82.734 112.129 82.0694 110.984C81.66 111.601 81.2208 112.042 80.752 112.306C80.2829 112.57 79.7043 112.702 79.0159 112.702C77.9239 112.702 77.0868 112.358 76.5054 111.67C75.9236 110.981 75.6328 109.99 75.6328 108.696V100.247H79.2474V108.153C79.2474 108.545 79.2786 108.803 79.3409 108.927C79.4031 109.052 79.5292 109.114 79.7192 109.114C80.0753 109.114 80.2533 108.815 80.2533 108.215V100.247H83.8679V108.153C83.8679 108.533 83.9004 108.788 83.9658 108.919C84.0311 109.049 84.1586 109.114 84.3486 109.114C84.7046 109.114 84.8828 108.794 84.8828 108.153V100.247H88.4972Z" fill="#1B75BB"/>
<path d="M97.1601 104.976V107.682H94.8009C94.4804 107.682 94.2534 107.73 94.1198 107.824C93.9862 107.919 93.9194 108.08 93.9194 108.305C93.9194 108.56 93.9876 108.728 94.1242 108.808C94.2608 108.888 94.5396 108.928 94.9611 108.928H97.3916V112.4H94.5516C93.2161 112.4 92.1953 112.081 91.4891 111.443C90.7826 110.805 90.4297 109.884 90.4297 108.679V103.916C90.4297 102.753 90.7635 101.851 91.4312 101.21C92.0988 100.569 93.0382 100.248 94.2489 100.248H97.3916V103.738H95.0858C94.4625 103.738 94.151 103.94 94.151 104.343C94.151 104.581 94.2251 104.746 94.3736 104.837C94.5218 104.93 94.786 104.976 95.1658 104.976H97.1601Z" fill="#1B75BB"/>
<path d="M99.2266 100.248H102.841V107.468C102.841 108.032 102.931 108.408 103.113 108.595C103.294 108.782 103.651 108.875 104.185 108.875H104.372V112.4H103.411C102.093 112.4 101.066 112.016 100.33 111.248C99.5945 110.479 99.2266 109.412 99.2266 108.047V100.248Z" fill="#1B75BB"/>
<path d="M105.336 100.248H108.95V107.468C108.95 108.032 109.041 108.408 109.222 108.595C109.403 108.782 109.761 108.875 110.295 108.875H110.482V112.4H109.52C108.203 112.4 107.176 112.016 106.44 111.248C105.704 110.479 105.336 109.412 105.336 108.047V100.248Z" fill="#1B75BB"/>
<path d="M80.8568 46.3747C78.5851 45.7336 78.2448 45.5421 78.2448 43.2384C78.2448 38.3654 78.2181 33.4923 78.2633 28.6193C78.2713 27.534 77.9495 27.1191 76.8322 27.1696C75.1512 27.2414 73.4648 27.2307 71.7836 27.1535C70.7037 27.103 70.3126 27.4356 70.3312 28.5608C70.3923 32.3273 70.3552 36.0939 70.3499 39.8577C70.3499 40.3205 70.3073 40.7807 70.2754 41.4456C69.6051 41.084 69.1449 40.8419 68.6928 40.5865C66.1072 39.1316 63.5509 37.6233 60.9363 36.2242C55.2785 33.1945 49.3546 31.0185 42.8084 31.4946C42.674 31.5046 42.5401 31.5176 42.4062 31.5294C42.6453 32.1269 42.9373 32.7069 43.181 33.3029C46.1489 33.7979 49.0261 34.8033 51.8178 36.2135C54.7359 37.687 57.5368 39.4108 60.3031 41.1585C64.8916 44.0604 69.3204 47.2072 74.518 49.032C78.2394 50.3353 82.006 50.5668 85.8628 50.0747C89.1134 49.6597 92.0155 48.2127 94.992 46.9838C95.3431 46.8376 95.665 46.622 96.0001 46.4384C90.8797 47.6381 85.8976 47.7977 80.8568 46.3747Z" fill="#257DC0"/>
<path d="M55.7525 41.5055C57.5878 42.6872 59.451 43.8282 61.2532 45.0589C66.1088 48.3749 71.1945 51.1976 77.0173 52.4138C80.1195 53.0617 83.2586 53.0532 86.3672 52.4467C89.5553 51.8248 92.7228 51.098 96.2533 50.3412C93.1559 52.1662 90.181 53.473 87.0121 54.0999C84.604 54.5764 82.0927 54.6022 79.6232 54.6656C78.6006 54.6918 78.3598 55.0005 78.3185 55.9463C78.2472 57.5779 78.185 59.2391 77.833 60.8244C76.5096 66.7844 72.5004 70.4758 66.284 71.3565C59.8878 72.263 54.4683 70.3736 50.3136 65.2793C50.121 65.0431 49.9559 64.7843 49.7031 64.432C51.4794 62.8321 53.2371 61.2487 54.9816 59.6773C55.3485 60.0176 56.0055 60.5974 56.6291 61.2109C58.5683 63.119 60.7922 64.2957 63.6074 64.2412C66.9754 64.1761 69.449 62.375 70.0337 59.061C70.4073 56.9438 70.3673 54.7489 70.4323 52.5865C70.4425 52.2439 70.1073 51.772 69.7959 51.5566C65.1875 48.368 60.5569 45.2113 55.9253 42.0561C55.7835 41.9596 55.5742 41.9615 55.3964 41.9174L55.7525 41.5055Z" fill="#D03337"/>
<path d="M83.6492 55.3641V57.7977H88.255C87.4744 55.103 87.0807 54.896 83.6492 55.3641ZM46.6898 59.8018H51.9217C50.8645 58.7196 49.8879 57.7913 49.0006 56.7843C48.4734 56.186 47.504 55.8513 47.7298 54.7039C47.7785 54.4559 47.1756 54.0798 46.6898 53.5713V59.8018ZM43.3586 57.3832C43.2772 58.3878 43.3484 64.4915 43.3484 64.4915L42.8051 65.5709L43.4842 66.7934L43.0768 68.4372L43.884 69.6481L43.2125 70.6872L44.1678 71.8448L42.7511 73.4502L42.7599 71.955L41.7295 70.7797L42.4142 69.6006L41.5827 68.0611L42.2165 66.7934L41.4015 65.6162L42.1713 64.4913L42.2154 58.4382L42.1713 56.5403L41.2114 56.021L41.2109 50.3185L42.1832 49.5883L42.1911 45.5497V38.4344C43.1912 38.1237 43.3505 38.5586 43.3457 39.3017C43.3249 42.4562 43.3207 45.6111 43.3583 48.7654C43.3618 49.0524 43.7069 49.3356 43.8931 49.6205C44.0526 49.3501 44.2569 49.0953 44.3569 48.8044C44.4316 48.5874 44.3718 48.3241 44.3718 48.0815L44.3729 28.547C44.3729 28.0811 44.3729 27.615 44.3729 27.1769H46.6256C46.6256 27.7128 46.6256 28.1525 46.6256 28.5921C46.6259 36.1149 46.6376 43.6375 46.6101 51.1601C46.6071 51.9532 46.775 52.5783 47.4178 53.0474C48.4509 53.8011 49.5592 54.4713 50.502 55.3246C51.8189 56.5165 53.0095 57.8476 54.2628 59.1108C54.4697 59.3195 54.7196 59.4856 55.153 59.8354V54.5646H69.6853V62.2614H78.7153V53.5395C79.1831 53.5781 79.5149 53.6056 79.9022 53.6377C79.9022 56.2857 79.896 58.8303 79.9055 61.3747C79.9089 62.248 79.9268 62.2478 80.9032 62.1728V53.5405C82.1145 53.5405 83.201 53.524 84.2867 53.5446C85.6517 53.5707 87.2776 53.1892 88.3026 53.8012C89.218 54.3479 89.4697 56.0061 90.0138 57.1741C90.0308 57.2106 90.0313 57.2642 90.0585 57.2853C90.4608 57.5973 90.8292 58.0913 91.2778 58.1811C93.0976 58.5458 94.9445 58.7713 96.7769 59.0756C99.0235 59.4486 99.0214 59.4605 99.4064 61.7201C99.4267 61.8392 99.4242 61.9817 99.4901 62.0709C100.676 63.6763 99.7756 65.4355 99.837 67.2009C99.3613 66.9307 99.0869 66.582 98.8867 66.1949C98.0654 64.6061 96.8483 63.5747 95.0017 63.5338C93.1975 63.4939 91.9556 64.4658 91.1087 65.9745C90.856 66.4246 90.7675 66.9643 90.5616 67.4448C90.477 67.6419 90.2804 67.7911 90.1348 67.962C90.0424 67.9268 89.9499 67.8914 89.8575 67.8562V64.3952H81.0804V67.433C76.7625 67.433 72.5632 67.4487 68.3646 67.3992C68.0701 67.3957 67.6774 66.964 67.5073 66.6389C66.646 64.9928 65.3539 64.0325 63.4713 64.0092C61.5349 63.9851 60.2168 64.9631 59.2931 66.6258C59.0928 66.9864 58.6071 67.2727 58.1922 67.4097C57.5635 67.6172 57.2313 67.2679 56.9444 66.644C56.1496 64.9154 54.7536 63.9768 52.8144 64.011C50.9369 64.0439 49.5698 64.9562 48.8259 66.6653C48.4933 67.4293 48.0888 67.5969 47.4005 67.3162C47.0658 65.842 47.6262 64.3171 47.0811 62.9301L46.6474 62.9453V67.5358H44.4895C44.3872 65.6764 44.2521 63.913 44.2038 62.1473C44.1553 60.3727 44.1931 58.5957 44.1931 56.3861C43.7821 56.8583 43.3812 57.1053 43.3586 57.3832Z" fill="#404041"/>
<path d="M54.8169 68.4728C54.8347 67.4781 53.9004 66.5306 52.8991 66.5276C51.8396 66.5243 50.998 67.3661 50.9869 68.4406C50.9756 69.5238 51.7813 70.34 52.8704 70.3485C53.935 70.3567 54.7981 69.5251 54.8169 68.4728ZM52.844 72.4626C50.7261 72.4369 48.9173 70.6283 48.8909 68.5104C48.8637 66.3186 50.6589 64.5018 52.8622 64.4909C55.1012 64.4801 56.8393 66.2171 56.8391 68.4657C56.8391 70.6698 55.0206 72.4891 52.844 72.4626Z" fill="#404041"/>
<path d="M61.4573 68.5734C61.5294 69.6149 62.4361 70.4016 63.5006 70.3464C64.5711 70.2909 65.3629 69.4087 65.297 68.3446C65.2333 67.3164 64.2779 66.4598 63.2713 66.5288C62.2573 66.5983 61.3884 67.5777 61.4573 68.5734ZM63.5595 64.4935C65.6898 64.5603 67.4302 66.4112 67.3657 68.5414C67.2987 70.7544 65.4358 72.5396 63.2773 72.4593C61.0579 72.3767 59.388 70.5723 59.4468 68.3202C59.505 66.0888 61.2959 64.4225 63.5595 64.4935Z" fill="#404041"/>
<path d="M92.9881 68.4791C92.9923 69.5176 93.8729 70.3606 94.9417 70.3492C96.0173 70.3376 96.8593 69.4926 96.8452 68.4389C96.8312 67.4135 95.9221 66.5173 94.9051 66.5264C93.9045 66.5352 92.984 67.4729 92.9881 68.4791ZM94.9838 64.492C97.1906 64.5166 98.9214 66.3218 98.8769 68.5516C98.8333 70.7181 97.0672 72.4663 94.9202 72.4687C92.724 72.471 90.9603 70.6638 90.9767 68.4284C90.9931 66.1877 92.7449 64.4667 94.9838 64.492Z" fill="#404041"/>
<path d="M89.2606 64.852H81.7188V67.8545H89.2606V64.852Z" fill="#404041"/>
</g>
</g>
<defs>
<clipPath id="clip0_2350_3232">
<rect width="140" height="140" fill="white"/>
</clipPath>
</defs>
</svg>
